<?xml version="1.0" encoding="utf-8"?>
<!-- Generator: Adobe Illustrator 25.2.3, SVG Export Plug-In . SVG Version: 6.00 Build 0)  -->
<svg version="1.1" id="Layer_1" xmlns="http://www.w3.org/2000/svg" xmlns:xlink="http://www.w3.org/1999/xlink" x="0px" y="0px"
	 viewBox="0 0 300 300" style="enable-background:new 0 0 300 300;" xml:space="preserve">
<g>
	<path d="M69.1,94.7l-5.7-6.6C52.6,75.5,46.2,67.2,34.1,65v-0.4H94l74.1,85.6v-46.6c0-30.1-13.4-35-26.8-38.5v-0.4h57.6V65
		c-13.4,3.5-26.8,8.4-26.8,38.5v110.7h-0.4L73,99.3v69.3c0,30.1,13.4,35,26.8,38.5v0.4H42.2v-0.4c13.4-3.5,26.8-8.4,26.8-38.5V94.7z
		"/>
	<path d="M206.6,204.4v-112c0-22.4-8.8-25.5-19.8-27.5v-0.4h77V65c-11,2-19.8,5.1-19.8,27.5v106.3c0,25.7-15,32.8-55,44v-0.4
		C205.3,231.7,206.6,226,206.6,204.4z"/>
</g>
</svg>
